<svg width="2475" height="738" viewBox="0 0 2750 820" fill="none" xmlns="http://www.w3.org/2000/svg">
<g transform="scale(0.9) translate(153, 46)">
<!-- D -->
<path d="M0 10H200C280 10 340 40 380 100C420 160 440 260 440 400C440 540 420 640 380 700C340 760 280 790 200 790H0V10ZM80 90V710H180C230 710 270 690 300 650C330 610 345 530 345 410C345 290 330 210 300 170C270 130 230 110 180 110H80V90Z" fill="#FE0100"/>
<!-- E -->
<path d="M550 810V10H880V110H630V360H850V460H630V710H880V810H550Z" fill="#FE0100"/>
<!-- X -->
<path d="M950 810L1090 420L960 10H1060L1150 280L1180 380H1185L1215 280L1305 10H1405L1275 420L1415 810H1315L1210 500L1180 400H1175L1145 500L1040 810H950Z" fill="#FE0100"/>
<!-- N -->
<path d="M1480 810V10H1580L1780 600L1810 710H1815V10H1895V810H1795L1595 220L1565 110H1560V810H1480Z" fill="#FE0100"/>
<!-- I -->
<path d="M1970 810V10H2050V810H1970Z" fill="#FE0100"/>
<!-- L -->
<path d="M2130 810V10H2210V710H2400V810H2130Z" fill="#FE0100"/>
<!-- L -->
<path d="M2480 810V10H2560V710H2750V810H2480Z" fill="#FE0100"/>
</g>
</svg>
